<svg xmlns="http://www.w3.org/2000/svg" viewBox="280.617 343.078 393.844 393.844" width="40" height="40" aria-label="House Mag" role="img">
<path fill="#000000" d="M 562.871094 343.078125 L 667.898438 343.078125 C 671.523438 343.078125 674.460938 346.015625 674.460938 349.640625 L 674.460938 454.667969 C 674.460938 458.292969 671.523438 461.230469 667.898438 461.230469 L 562.871094 461.230469 C 559.246094 461.230469 556.308594 458.292969 556.308594 454.667969 L 556.308594 349.640625 C 556.308594 346.015625 559.246094 343.078125 562.871094 343.078125"/>
<path fill="#000000" d="M 562.871094 480.921875 L 667.898438 480.921875 C 671.523438 480.921875 674.460938 483.863281 674.460938 487.488281 L 674.460938 592.511719 C 674.460938 596.136719 671.523438 599.078125 667.898438 599.078125 L 562.871094 599.078125 C 559.246094 599.078125 556.308594 596.136719 556.308594 592.511719 L 556.308594 487.488281 C 556.308594 483.863281 559.246094 480.921875 562.871094 480.921875"/>
<path fill="#000000" d="M 562.871094 618.769531 L 667.898438 618.769531 C 671.523438 618.769531 674.460938 621.707031 674.460938 625.332031 L 674.460938 730.359375 C 674.460938 733.984375 671.523438 736.921875 667.898438 736.921875 L 562.871094 736.921875 C 559.246094 736.921875 556.308594 733.984375 556.308594 730.359375 L 556.308594 625.332031 C 556.308594 621.707031 559.246094 618.769531 562.871094 618.769531"/>
<path fill="#000000" d="M 425.027344 480.921875 L 530.050781 480.921875 C 533.679688 480.921875 536.617188 483.863281 536.617188 487.488281 L 536.617188 592.511719 C 536.617188 596.136719 533.679688 599.078125 530.050781 599.078125 L 425.027344 599.078125 C 421.402344 599.078125 418.464844 596.136719 418.464844 592.511719 L 418.464844 487.488281 C 418.464844 483.863281 421.402344 480.921875 425.027344 480.921875"/>
<path fill="#000000" d="M 287.179688 343.078125 L 392.207031 343.078125 C 395.832031 343.078125 398.769531 346.015625 398.769531 349.640625 L 398.769531 454.667969 C 398.769531 458.292969 395.832031 461.230469 392.207031 461.230469 L 287.179688 461.230469 C 283.554688 461.230469 280.617188 458.292969 280.617188 454.667969 L 280.617188 349.640625 C 280.617188 346.015625 283.554688 343.078125 287.179688 343.078125"/>
<path fill="#000000" d="M 287.179688 480.921875 L 392.207031 480.921875 C 395.832031 480.921875 398.769531 483.863281 398.769531 487.488281 L 398.769531 592.511719 C 398.769531 596.136719 395.832031 599.078125 392.207031 599.078125 L 287.179688 599.078125 C 283.554688 599.078125 280.617188 596.136719 280.617188 592.511719 L 280.617188 487.488281 C 280.617188 483.863281 283.554688 480.921875 287.179688 480.921875"/>
<path fill="#000000" d="M 287.179688 618.769531 L 392.207031 618.769531 C 395.832031 618.769531 398.769531 621.707031 398.769531 625.332031 L 398.769531 730.359375 C 398.769531 733.984375 395.832031 736.921875 392.207031 736.921875 L 287.179688 736.921875 C 283.554688 736.921875 280.617188 733.984375 280.617188 730.359375 L 280.617188 625.332031 C 280.617188 621.707031 283.554688 618.769531 287.179688 618.769531"/>
</svg>
